<svg xmlns="http://www.w3.org/2000/svg" viewBox="0 0 100 100" width="200" height="200">
  <rect x="47" y="32" width="6" height="4" rx="1" fill="#ffffff" opacity="0.7" />
  <circle cx="50" cy="29" r="5" fill="#ffffff" />
  <circle cx="50" cy="29" r="3.5" fill="#ffffff" opacity="0.3" />

  <path d="M 16 68 A 34 34 0 0 1 84 68 Z" fill="#ffffff" />
  <path d="M 20 68 A 30 30 0 0 1 80 68 Z" fill="#ffffff" opacity="0.15" />
  <path d="M 24 66 A 26 26 0 0 1 55 36" fill="none" stroke="#ffffff" stroke-width="2" stroke-linecap="round" opacity="0.4" />

  <path d="M 8 70 Q 8 77 50 77 Q 92 77 92 70 Q 92 66 50 66 Q 8 66 8 70 Z" fill="#ffffff" />
  <ellipse cx="50" cy="69.5" rx="39" ry="4" fill="#ffffff" opacity="0.2" />
  <ellipse cx="50" cy="67" rx="34" ry="2.5" fill="#ffffff" opacity="0.3" />
</svg>
